<svg xmlns="http://www.w3.org/2000/svg" width="400" height="224" viewBox="0 0 400 224" class="WaveDrom"><g transform="translate(0.5,0.5)" text-anchor="middle" font-size="14" font-family="sans-serif" font-weight="normal"><g transform="translate(4,189)"><g stroke="black" stroke-width="1" stroke-linecap="round"><line x2="391"/><line x2="391" y1="31" y2="31"/><line y2="31"/><line x1="391" x2="391" y2="31"/><line x1="342" x2="342" y2="31"/><line x1="293" x2="293" y2="31"/><line x1="244" x2="244" y2="31"/><line x1="196" x2="196" y2="31"/><line x1="147" x2="147" y2="31"/><line x1="98" x2="98" y2="31"/><line x1="49" x2="49" y2="31"/><line y2="31"/></g><g><g/><g transform="translate(24,-11)"><g transform="translate(342)"><text y="6">0</text></g><g transform="translate(293)"><text y="6">1</text></g><g transform="translate(244)"><text y="6">2</text></g><g transform="translate(196)"><text y="6">3</text></g><g transform="translate(147)"><text y="6">4</text></g><g transform="translate(98)"><text y="6">5</text></g><g transform="translate(49)"><text y="6">6</text></g><g transform="translate(0)"><text y="6">7</text></g></g><g transform="translate(24,15)"><g transform="translate(342)"><text y="6"><tspan>source0</tspan></text></g><g transform="translate(293)"><text y="6"><tspan>source1</tspan></text></g><g transform="translate(244)"><text y="6"><tspan>source2</tspan></text></g><g transform="translate(196)"><text y="6"><tspan>source3</tspan></text></g><g transform="translate(147)"><text y="6"><tspan>source4</tspan></text></g><g transform="translate(98)"><text y="6"><tspan>source5</tspan></text></g><g transform="translate(49)"><text y="6"><tspan>source6</tspan></text></g><g transform="translate(0)"><text y="6"><tspan>source7</tspan></text></g></g><g transform="translate(24,39)"/></g></g><g transform="translate(4,133)"><g stroke="black" stroke-width="1" stroke-linecap="round"><line x2="391"/><line x2="391" y1="31" y2="31"/><line y2="31"/><line x1="391" x2="391" y2="31"/><line x1="342" x2="342" y2="31"/><line x1="293" x2="293" y2="31"/><line x1="244" x2="244" y2="31"/><line x1="196" x2="196" y2="31"/><line x1="147" x2="147" y2="31"/><line x1="98" x2="98" y2="31"/><line x1="49" x2="49" y2="31"/><line y2="31"/></g><g><g/><g transform="translate(24,-11)"><g transform="translate(342)"><text y="6">8</text></g><g transform="translate(293)"><text y="6">9</text></g><g transform="translate(244)"><text y="6">10</text></g><g transform="translate(196)"><text y="6">11</text></g><g transform="translate(147)"><text y="6">12</text></g><g transform="translate(98)"><text y="6">13</text></g><g transform="translate(49)"><text y="6">14</text></g><g transform="translate(0)"><text y="6">15</text></g></g><g transform="translate(24,15)"><g transform="translate(342)"><text y="6"><tspan>source8</tspan></text></g><g transform="translate(293)"><text y="6"><tspan>source9</tspan></text></g><g transform="translate(244)"><text y="6"><tspan>source10</tspan></text></g><g transform="translate(196)"><text y="6"><tspan>source11</tspan></text></g><g transform="translate(147)"><text y="6"><tspan>source12</tspan></text></g><g transform="translate(98)"><text y="6"><tspan>source13</tspan></text></g><g transform="translate(49)"><text y="6"><tspan>source14</tspan></text></g><g transform="translate(0)"><text y="6"><tspan>source15</tspan></text></g></g><g transform="translate(24,39)"/></g></g><g transform="translate(4,77)"><g stroke="black" stroke-width="1" stroke-linecap="round"><line x2="391"/><line x2="391" y1="31" y2="31"/><line y2="31"/><line x1="391" x2="391" y2="31"/><line x1="342" x2="342" y2="31"/><line x1="293" x2="293" y2="31"/><line x1="244" x2="244" y2="31"/><line x1="196" x2="196" y2="31"/><line x1="147" x2="147" y2="3"/><line x1="147" x2="147" y1="31" y2="28"/><line x1="98" x2="98" y2="3"/><line x1="98" x2="98" y1="31" y2="28"/><line x1="49" x2="49" y2="3"/><line x1="49" x2="49" y1="31" y2="28"/><line y2="31"/></g><g><g><rect width="196" height="31" style="fill-opacity:0.1"/></g><g transform="translate(24,-11)"><g transform="translate(342)"><text y="6">16</text></g><g transform="translate(293)"><text y="6">17</text></g><g transform="translate(244)"><text y="6">18</text></g><g transform="translate(196)"><text y="6">19</text></g><g transform="translate(147)"><text y="6">20</text></g><g transform="translate(0)"><text y="6">23</text></g></g><g transform="translate(24,15)"><g transform="translate(342)"><text y="6"><tspan>source16</tspan></text></g><g transform="translate(293)"><text y="6"><tspan>source17</tspan></text></g><g transform="translate(244)"><text y="6"><tspan>source18</tspan></text></g><g transform="translate(196)"><text y="6"><tspan>source19</tspan></text></g></g><g transform="translate(24,39)"/></g></g><g transform="translate(4,21)"><g stroke="black" stroke-width="1" stroke-linecap="round"><line x2="391"/><line x2="391" y1="31" y2="31"/><line y2="31"/><line x1="391" x2="391" y2="31"/><line x1="342" x2="342" y2="3"/><line x1="342" x2="342" y1="31" y2="28"/><line x1="293" x2="293" y2="3"/><line x1="293" x2="293" y1="31" y2="28"/><line x1="244" x2="244" y2="3"/><line x1="244" x2="244" y1="31" y2="28"/><line x1="196" x2="196" y2="3"/><line x1="196" x2="196" y1="31" y2="28"/><line x1="147" x2="147" y2="3"/><line x1="147" x2="147" y1="31" y2="28"/><line x1="98" x2="98" y2="3"/><line x1="98" x2="98" y1="31" y2="28"/><line x1="49" x2="49" y2="3"/><line x1="49" x2="49" y1="31" y2="28"/><line y2="31"/></g><g><g><rect width="391" height="31" style="fill-opacity:0.1"/></g><g transform="translate(24,-11)"><g transform="translate(342)"><text y="6">24</text></g><g transform="translate(0)"><text y="6">31</text></g></g><g transform="translate(24,15)"/><g transform="translate(24,39)"/></g></g></g></svg>