<svg xmlns="http://www.w3.org/2000/svg" width="400" height="56" viewBox="0 0 400 56" class="WaveDrom"><g transform="translate(0.5,0.5)" text-anchor="middle" font-size="14" font-family="sans-serif" font-weight="normal"><g transform="translate(4,21)"><g stroke="black" stroke-width="1" stroke-linecap="round"><line x2="391"/><line x2="391" y1="31" y2="31"/><line y2="31"/><line x1="391" x2="391" y2="31"/><line x1="379" x2="379" y2="3"/><line x1="379" x2="379" y1="31" y2="28"/><line x1="367" x2="367" y2="3"/><line x1="367" x2="367" y1="31" y2="28"/><line x1="354" x2="354" y2="3"/><line x1="354" x2="354" y1="31" y2="28"/><line x1="342" x2="342" y2="3"/><line x1="342" x2="342" y1="31" y2="28"/><line x1="330" x2="330" y2="3"/><line x1="330" x2="330" y1="31" y2="28"/><line x1="318" x2="318" y2="3"/><line x1="318" x2="318" y1="31" y2="28"/><line x1="305" x2="305" y2="3"/><line x1="305" x2="305" y1="31" y2="28"/><line x1="293" x2="293" y2="3"/><line x1="293" x2="293" y1="31" y2="28"/><line x1="281" x2="281" y2="3"/><line x1="281" x2="281" y1="31" y2="28"/><line x1="269" x2="269" y2="3"/><line x1="269" x2="269" y1="31" y2="28"/><line x1="257" x2="257" y2="3"/><line x1="257" x2="257" y1="31" y2="28"/><line x1="244" x2="244" y2="3"/><line x1="244" x2="244" y1="31" y2="28"/><line x1="232" x2="232" y2="3"/><line x1="232" x2="232" y1="31" y2="28"/><line x1="220" x2="220" y2="3"/><line x1="220" x2="220" y1="31" y2="28"/><line x1="208" x2="208" y2="3"/><line x1="208" x2="208" y1="31" y2="28"/><line x1="196" x2="196" y2="3"/><line x1="196" x2="196" y1="31" y2="28"/><line x1="183" x2="183" y2="3"/><line x1="183" x2="183" y1="31" y2="28"/><line x1="171" x2="171" y2="3"/><line x1="171" x2="171" y1="31" y2="28"/><line x1="159" x2="159" y2="3"/><line x1="159" x2="159" y1="31" y2="28"/><line x1="147" x2="147" y2="3"/><line x1="147" x2="147" y1="31" y2="28"/><line x1="134" x2="134" y2="3"/><line x1="134" x2="134" y1="31" y2="28"/><line x1="122" x2="122" y2="3"/><line x1="122" x2="122" y1="31" y2="28"/><line x1="110" x2="110" y2="3"/><line x1="110" x2="110" y1="31" y2="28"/><line x1="98" x2="98" y2="3"/><line x1="98" x2="98" y1="31" y2="28"/><line x1="86" x2="86" y2="3"/><line x1="86" x2="86" y1="31" y2="28"/><line x1="73" x2="73" y2="3"/><line x1="73" x2="73" y1="31" y2="28"/><line x1="61" x2="61" y2="3"/><line x1="61" x2="61" y1="31" y2="28"/><line x1="49" x2="49" y2="3"/><line x1="49" x2="49" y1="31" y2="28"/><line x1="37" x2="37" y2="3"/><line x1="37" x2="37" y1="31" y2="28"/><line x1="24" x2="24" y2="3"/><line x1="24" x2="24" y1="31" y2="28"/><line x1="12" x2="12" y2="3"/><line x1="12" x2="12" y1="31" y2="28"/><line y2="31"/></g><g><g/><g transform="translate(6,-11)"><g transform="translate(379)"><text y="6">0</text></g><g transform="translate(0)"><text y="6">31</text></g></g><g transform="translate(6,15)"><g transform="translate(189)"><text y="6"><tspan>rtest[31:0]</tspan></text></g></g><g transform="translate(6,39)"/></g></g></g></svg>